<svg xmlns="http://www.w3.org/2000/svg" xmlns:xlink="http://www.w3.org/1999/xlink" width="800" zoomAndPan="magnify" viewBox="0 0 600 599.999999" height="800" preserveAspectRatio="none" version="1.0"><defs><clipPath id="c0917b068f"><path d="M 58.421875 13.570312 L 541 13.570312 L 541 552 L 58.421875 552 Z M 58.421875 13.570312 " clip-rule="nonzero"/></clipPath><clipPath id="2ad1b0bbc0"><path d="M 36 17 L 563 17 L 563 517 L 36 517 Z M 36 17 " clip-rule="nonzero"/></clipPath><clipPath id="d08e917091"><path d="M 511.402344 230.957031 C 507.375 234.542969 502.222656 237.523438 498.957031 240.664062 C 486.390625 252.746094 501.414062 245.335938 501.375 253.753906 C 501.375 260.679688 492.394531 256.652344 487.921875 257.78125 C 465.410156 263.097656 480.714844 290.484375 497.265625 292.175781 C 503.507812 292.78125 511.28125 288.914062 517.40625 291.371094 C 523.527344 293.828125 524.25 297.613281 520.023438 302.851562 C 514.785156 309.292969 508.90625 306.878906 502.421875 305.46875 C 495.9375 304.058594 497.550781 304.179688 491.46875 307.199219 C 489.527344 308.425781 487.4375 309.28125 485.191406 309.765625 C 482.949219 310.25 480.691406 310.335938 478.417969 310.019531 C 465.246094 310.019531 460.011719 323.308594 468.832031 333.820312 C 476.242188 342.683594 517.847656 344.050781 509.632812 361.089844 C 503.992188 372.769531 491.910156 363.503906 485.464844 358.109375 C 483.734375 356.699219 459.046875 339.78125 459.488281 344.496094 C 461.21875 362.5 448.734375 347.636719 442.007812 349.488281 C 442.007812 354.5625 448.773438 360.445312 444.949219 365.15625 C 438.542969 373.210938 432.421875 360.445312 428.394531 357.867188 C 427.613281 357.28125 426.765625 356.8125 425.851562 356.457031 C 424.941406 356.101562 424 355.875 423.027344 355.777344 C 422.054688 355.675781 421.085938 355.710938 420.121094 355.875 C 419.15625 356.039062 418.234375 356.328125 417.347656 356.746094 C 416.464844 357.160156 415.648438 357.6875 414.90625 358.324219 C 414.164062 358.960938 413.523438 359.683594 412.976562 360.496094 C 412.429688 361.308594 412.003906 362.175781 411.695312 363.105469 C 411.386719 364.035156 411.207031 364.984375 411.15625 365.960938 C 409.746094 378.769531 424.972656 391.457031 431.296875 401.527344 C 439.351562 414.253906 439.351562 427.421875 429.441406 439.304688 C 411.601562 461.09375 369.027344 458.878906 349.816406 439.546875 C 340.070312 429.679688 336.484375 414.375 333.707031 401.285156 C 332.417969 395.445312 333.425781 378.972656 325.652344 377.882812 C 317.878906 376.796875 312.882812 389.964844 312.320312 395.445312 C 311.878906 400.074219 314.253906 438.136719 300.238281 425.328125 C 286.222656 412.519531 312.320312 386.460938 304.464844 372.96875 C 299.996094 365.480469 300.117188 371.921875 293.792969 372.6875 C 284.691406 373.777344 292.425781 370.632812 286.542969 366.363281 C 275.910156 358.589844 278.167969 384.328125 265.078125 377.117188 C 264.632812 369.464844 270.3125 362.699219 267.292969 354.964844 C 252.230469 352.390625 238.855469 375.707031 234.304688 387.1875 C 231.125 395.242188 230.761719 405.675781 226.773438 413.003906 C 219.644531 426.296875 207.683594 419.285156 210.261719 405.792969 C 213.804688 387.027344 257.261719 349.167969 232.9375 329.269531 C 228.910156 326.007812 228.546875 327.214844 223.792969 325.765625 C 216.382812 323.550781 220.410156 326.289062 216.664062 320.371094 C 215.820312 319 217.710938 316.34375 216.304688 314.8125 C 214.894531 313.28125 213.082031 315.65625 211.832031 314.8125 C 208.246094 312.839844 205.386719 315.457031 204.179688 310.140625 C 202.648438 303.332031 214.492188 296.003906 210.503906 288.671875 C 206.515625 281.34375 196.164062 286.457031 191.007812 288.996094 C 177.4375 295.601562 165.757812 308.851562 151.457031 313.484375 C 144.210938 315.859375 132.527344 315.9375 135.066406 305.425781 C 139.417969 287.140625 181.0625 284.644531 194.394531 273.890625 C 213 258.949219 186.699219 268.496094 186.335938 258.0625 C 185.894531 245.980469 207.441406 248.195312 210.503906 237.523438 C 216.945312 213.757812 181.949219 227.453125 172.199219 225.441406 C 165.152344 223.949219 166.28125 217.988281 171.152344 213.355469 C 176.671875 208.160156 186.335938 205.300781 178.96875 197.691406 C 173.046875 191.527344 163.863281 192.332031 158.386719 184.15625 C 152.910156 175.980469 149.363281 159.46875 163.824219 164.664062 C 179.046875 170.179688 185.453125 187.257812 199.46875 194.304688 C 204.058594 196.601562 212.113281 199.945312 216.140625 195.113281 C 219.242188 191.445312 214.492188 189.152344 216.140625 185.648438 C 217.792969 182.144531 221.539062 181.097656 224.195312 179.808594 C 232.535156 175.980469 231.285156 177.632812 231.125 168.890625 C 231.125 158.945312 231.125 164.664062 239.785156 161.804688 C 251.867188 157.777344 246.269531 144.203125 238.375 139.894531 C 228.304688 134.375 215.898438 134.898438 207.601562 126 C 197.171875 114.800781 202.570312 98.371094 216.625 111.5 C 221.175781 115.726562 240.226562 142.832031 249.128906 133.972656 C 253.476562 129.664062 244.738281 116.65625 243.890625 111.339844 C 251.945312 109.929688 259.277344 127.890625 265.558594 121.527344 C 269.992188 117.058594 261.53125 107.269531 259.882812 103.363281 C 257.8125 98.738281 256.335938 93.933594 255.449219 88.945312 C 254.5625 83.957031 254.296875 78.9375 254.644531 73.882812 C 263.707031 74.285156 267.816406 94.019531 271.117188 100.824219 C 274.421875 107.632812 287.632812 113.914062 284.570312 101.308594 C 291.457031 99.738281 290.289062 107.875 295.929688 108.679688 C 305.03125 109.929688 302.292969 97.320312 305.070312 92.570312 C 306.84375 89.386719 309.339844 85.199219 314.011719 87.574219 C 318.683594 89.953125 314.011719 96.035156 318.441406 98.410156 C 322.871094 100.785156 324.847656 93.777344 328.914062 93.859375 C 334.511719 93.859375 335.316406 103.886719 340.996094 92.609375 C 345.386719 83.871094 336.566406 78.351562 337.976562 70.054688 C 338.027344 69.679688 338.101562 69.3125 338.199219 68.949219 C 338.296875 68.582031 338.417969 68.226562 338.558594 67.875 C 338.703125 67.527344 338.867188 67.1875 339.050781 66.859375 C 339.234375 66.53125 339.441406 66.214844 339.664062 65.910156 C 339.890625 65.605469 340.132812 65.320312 340.394531 65.046875 C 340.65625 64.773438 340.933594 64.519531 341.222656 64.28125 C 341.515625 64.042969 341.824219 63.824219 342.144531 63.625 C 342.464844 63.425781 342.796875 63.246094 343.140625 63.085938 C 343.480469 62.929688 343.832031 62.792969 344.195312 62.679688 C 344.554688 62.566406 344.917969 62.476562 345.289062 62.40625 C 345.660156 62.339844 346.035156 62.296875 346.414062 62.273438 C 346.789062 62.253906 347.164062 62.257812 347.542969 62.28125 C 347.917969 62.308594 348.292969 62.359375 348.664062 62.429688 C 349.03125 62.503906 349.398438 62.601562 349.753906 62.71875 C 350.113281 62.839844 350.460938 62.980469 350.804688 63.140625 C 351.144531 63.304688 351.472656 63.488281 351.789062 63.691406 C 355.816406 66.996094 355.578125 75.773438 355.214844 80.246094 C 354.972656 83.628906 350.460938 96.074219 354.851562 98.328125 C 359.242188 100.585938 359.203125 90.636719 364.398438 93.011719 C 372.773438 96.839844 358.679688 108.558594 373.21875 113.433594 C 377.847656 114.964844 381.753906 114.640625 385.902344 117.460938 C 399.195312 126.441406 395.609375 120.039062 406.765625 114.078125 C 414.097656 110.050781 411.398438 119.875 411.84375 125.394531 C 426.261719 124.386719 421.992188 104.773438 431.054688 98.371094 C 448.128906 86.285156 429.964844 122.535156 428.273438 126.5625 C 425.414062 133.046875 426.460938 139.410156 433.109375 142.671875 C 449.21875 150.246094 460.859375 122.050781 468.511719 112.023438 C 474.1875 104.570312 490.378906 83.828125 498.757812 99.457031 C 507.132812 115.082031 476.363281 134.296875 470.039062 146.78125 C 475.921875 149.316406 490.78125 134.699219 491.707031 146.578125 C 492.351562 154.957031 477.289062 155.160156 477.53125 165.148438 C 497.308594 162.125 460.171875 187.296875 481.074219 191.042969 C 490.339844 192.65625 496.058594 182.101562 504.355469 180.167969 C 514.828125 177.753906 519.296875 186.210938 511.847656 193.621094 C 506.289062 199.140625 496.140625 200.308594 495.738281 209.730469 C 503.46875 212.351562 511.160156 205.703125 515.550781 217.425781 C 515.78125 218.019531 515.960938 218.628906 516.089844 219.253906 C 516.21875 219.875 516.292969 220.507812 516.316406 221.144531 C 516.339844 221.78125 516.308594 222.414062 516.226562 223.046875 C 516.144531 223.679688 516.007812 224.300781 515.824219 224.910156 C 515.636719 225.519531 515.398438 226.109375 515.113281 226.679688 C 514.828125 227.25 514.5 227.789062 514.121094 228.304688 C 513.746094 228.820312 513.328125 229.300781 512.875 229.746094 C 512.417969 230.191406 511.925781 230.59375 511.402344 230.957031 Z M 223.269531 357.183594 C 218.519531 347.796875 204.824219 363.34375 203.132812 367.332031 C 200.234375 373.453125 196.96875 383.964844 204.460938 388.4375 C 209.09375 391.175781 218.679688 392.824219 220.570312 386.421875 C 222.464844 380.019531 213.082031 376.433594 215.660156 370.3125 C 216.867188 366.765625 225.527344 361.613281 223.269531 357.183594 Z M 397.421875 56.121094 C 398.109375 46.613281 405.761719 28.933594 398.792969 20.394531 C 386.992188 5.414062 386.1875 52.253906 385.300781 59.988281 C 384.050781 70.5 378.855469 84.152344 382.964844 93.816406 C 393.757812 83.992188 396.375 70.054688 397.421875 56.121094 Z M 269.667969 497.824219 C 262.296875 499.796875 254.765625 516.269531 266.246094 516.957031 C 279.695312 517.761719 267.535156 498.390625 269.667969 497.824219 Z M 544.066406 271.714844 C 544.632812 279.289062 559.453125 289.761719 562.230469 278.644531 C 565.414062 265.515625 544.066406 273.890625 544.066406 271.714844 Z M 517.484375 261.246094 C 514.785156 273.328125 536.738281 270.347656 537.339844 261.246094 C 537.945312 249.847656 519.296875 252.707031 517.363281 261.246094 Z M 68.8125 253.070312 C 65.671875 244.449219 56.730469 257.097656 55.925781 256.089844 C 59.105469 260.15625 71.429688 260.4375 68.8125 253.070312 Z M 36.914062 260.359375 C 39.976562 268.132812 51.253906 258.144531 48.109375 252.785156 C 44.164062 246.0625 34.738281 254.800781 36.914062 260.359375 Z M 532.953125 146.902344 C 527.433594 151.414062 515.714844 159.832031 520.507812 168.609375 C 525.300781 177.390625 536.617188 167.644531 539.476562 161.882812 C 545.515625 150.40625 548.980469 133.851562 532.953125 146.902344 Z M 271.722656 421.542969 C 269.113281 436.773438 264.886719 451.542969 259.035156 465.847656 C 257.222656 470.558594 242.925781 503.945312 253.398438 502.09375 C 268.296875 499.597656 275.265625 440.070312 278.8125 428.1875 C 282.839844 414.734375 287.589844 398.261719 286.542969 384.207031 C 276.3125 389.160156 273.332031 411.191406 271.722656 421.542969 Z M 293.710938 79.199219 C 299.351562 78.554688 300.4375 70.699219 300.480469 68.285156 C 300.519531 65.867188 301.285156 62.925781 298.625 60.792969 C 298.386719 60.390625 290.328125 56 289.683594 57.769531 C 289.039062 59.542969 289.683594 62.886719 288.113281 64.136719 C 285.65625 66.066406 281.066406 65.707031 278.8125 67.757812 C 275.546875 70.539062 285.859375 80.003906 293.710938 79.078125 Z M 58.542969 335.675781 C 69.539062 340.425781 81.097656 331.648438 91.769531 330.921875 C 98.859375 330.359375 106.589844 333.539062 104.296875 322.0625 C 99.222656 296.527344 63.253906 337.609375 58.542969 335.675781 Z M 478.136719 71.90625 C 483.53125 67.277344 491.667969 65.304688 483.050781 57.367188 C 464 39.769531 459.085938 94.140625 454.050781 95.269531 C 465.730469 92.648438 470 78.875 478.136719 71.90625 Z M 129.425781 241.066406 C 117.625 243.320312 106.992188 241.347656 95.191406 241.589844 C 91.164062 241.589844 68.652344 243.726562 75.054688 249.402344 C 82.34375 255.726562 100.75 248.636719 108.605469 246.707031 C 126.851562 242.273438 144.851562 244.730469 163.097656 243.242188 C 152.707031 234.984375 141.308594 239.011719 129.425781 241.148438 Z M 108.726562 161.84375 C 114.929688 165.550781 124.515625 163.859375 131.238281 162.929688 C 127.210938 159.226562 122.21875 161.523438 117.464844 159.226562 C 113.761719 157.414062 110.335938 148.109375 105.785156 149.601562 C 98.777344 151.855469 105.0625 159.628906 108.726562 161.84375 Z M 108.726562 161.84375 " clip-rule="nonzero"/></clipPath></defs><g clip-path="url(#c0917b068f)"><path fill="#f09bc5" d="M 272.308594 55.894531 C 275.246094 43.601562 280.6875 31.242188 290.839844 23.722656 C 300.335938 16.6875 312.640625 14.808594 324.4375 14.144531 C 334.648438 13.574219 346.230469 14.320312 352.960938 22.019531 C 357.824219 27.585938 358.875 35.414062 359.804688 42.746094 C 362.097656 60.753906 364.929688 78.691406 368.296875 96.527344 C 370.300781 107.132812 373.421875 119.023438 382.90625 124.171875 C 393.53125 129.941406 406.957031 124.164062 415.808594 115.929688 C 424.660156 107.699219 431.285156 97.035156 441.285156 90.238281 C 460.601562 77.109375 488.207031 82.40625 506.203125 97.289062 C 515.832031 105.253906 523.59375 116.039062 525.800781 128.339844 C 528.011719 140.636719 523.886719 154.410156 513.855469 161.859375 C 506.21875 167.53125 496.28125 169.058594 487.980469 173.707031 C 476.503906 180.140625 468.800781 192.832031 468.394531 205.984375 C 467.988281 219.136719 474.894531 232.277344 485.953125 239.40625 C 496.472656 246.1875 509.824219 247.550781 520.179688 254.585938 C 537.855469 266.59375 541.574219 291.03125 540.5 312.375 C 539.796875 326.390625 536.757812 342 525.199219 349.953125 C 502.089844 365.863281 469.289062 337.902344 443.378906 348.664062 C 424.296875 356.585938 419.027344 381.648438 422.363281 402.039062 C 425.699219 422.433594 434.839844 442.0625 434.023438 462.710938 C 432.972656 489.390625 415.292969 512.800781 394.535156 529.597656 C 381.703125 539.984375 366.945312 548.769531 350.609375 551.167969 C 334.273438 553.570312 316.167969 548.566406 305.988281 535.566406 C 296.195312 523.0625 294.800781 505.175781 283.859375 493.660156 C 271.933594 481.105469 252.113281 479.933594 235.238281 483.808594 C 218.359375 487.679688 202.550781 495.652344 185.480469 498.558594 C 148.640625 504.832031 107.609375 482.285156 97.464844 446.320312 C 95.71875 440.128906 94.859375 433.441406 96.785156 427.304688 C 99.894531 417.398438 109.464844 411.019531 118.941406 406.777344 C 128.417969 402.539062 138.710938 399.457031 146.53125 392.632812 C 154.355469 385.804688 158.832031 373.539062 153.085938 364.890625 C 150.667969 361.25 146.851562 358.816406 143.152344 356.492188 C 131.453125 349.148438 119.757812 341.800781 108.058594 334.453125 C 91.390625 323.984375 74.039062 312.8125 64.433594 295.632812 C 60.53125 288.65625 58.4375 280.386719 58.429688 272.296875 L 58.429688 272.28125 C 58.421875 260.464844 62.867188 249.039062 72.640625 242.632812 C 82.035156 236.472656 94.003906 236.164062 105.226562 236.652344 C 116.449219 237.140625 128.085938 238.160156 138.566406 234.117188 C 149.046875 230.074219 157.875 219.046875 155.152344 208.148438 C 152.984375 199.480469 144.691406 194 137.046875 189.371094 C 126.730469 183.125 116.414062 176.875 106.097656 170.628906 C 91.453125 161.757812 75.851562 151.789062 69.644531 135.832031 C 62.472656 117.398438 71.480469 94.570312 88.714844 84.863281 C 105.953125 75.15625 129.210938 78.691406 143.742188 92.113281 C 151.117188 98.929688 156.332031 107.808594 163.617188 114.722656 C 171.5 122.207031 182.550781 127.28125 193.207031 125.136719 C 203.867188 122.992188 212.78125 111.8125 209.886719 101.332031 C 207.480469 92.617188 198.273438 86.847656 196.558594 77.96875 C 193.964844 64.507812 211.488281 54.378906 224.609375 58.355469 C 237.730469 62.335938 246.378906 74.496094 254.019531 85.878906 C 259.078125 94.734375 265.582031 105.195312 272.828125 112.28125 C 269.605469 93.253906 267.734375 75.03125 272.308594 55.894531 Z M 272.308594 55.894531 " fill-opacity="1" fill-rule="nonzero"/></g><g clip-path="url(#2ad1b0bbc0)"><g clip-path="url(#d08e917091)"><path fill="#f09bc5" d="M 34.738281 5.414062 L 34.738281 517.664062 L 565.414062 517.664062 L 565.414062 5.414062 Z M 34.738281 5.414062 " fill-opacity="1" fill-rule="nonzero"/></g></g></svg>